<svg width="615" height="225" fill="none" xmlns="http://www.w3.org/2000/svg">
  <path d="M47.95 41.997h27.587l12.3 88.035h.352l12.3-88.035h27.588V165h-18.275V71.87h-.351L95.393 165H79.227L65.169 71.87h-.35V165h-16.87V41.997Zm122.49 124.76c-9.489 0-16.752-2.694-21.789-8.083-5.037-5.389-7.556-13.003-7.556-22.843V71.166c0-9.84 2.519-17.454 7.556-22.843 5.037-5.389 12.3-8.083 21.789-8.083s16.752 2.694 21.789 8.083c5.037 5.389 7.556 13.003 7.556 22.843v64.665c0 9.84-2.519 17.454-7.556 22.843-5.037 5.389-12.3 8.083-21.789 8.083Zm0-17.572c6.677 0 10.016-4.041 10.016-12.124V69.936c0-8.083-3.339-12.124-10.016-12.124s-10.016 4.041-10.016 12.124v67.125c0 8.083 3.339 12.124 10.016 12.124Zm70.356 17.572c-9.489 0-16.752-2.694-21.789-8.083-5.037-5.389-7.556-13.003-7.556-22.843V71.166c0-9.84 2.519-17.454 7.556-22.843 5.037-5.389 12.3-8.083 21.789-8.083s16.752 2.694 21.789 8.083c5.037 5.389 7.556 13.003 7.556 22.843v64.665c0 9.84-2.519 17.454-7.556 22.843-5.037 5.389-12.3 8.083-21.789 8.083Zm0-17.572c6.677 0 10.016-4.041 10.016-12.124V69.936c0-8.083-3.339-12.124-10.016-12.124s-10.016 4.041-10.016 12.124v67.125c0 8.083 3.339 12.124 10.016 12.124Zm42.417-107.188h29.52c9.606 0 16.811 2.577 21.614 7.732 4.803 5.154 7.204 12.71 7.204 22.668V134.6c0 9.957-2.401 17.513-7.204 22.667-4.803 5.155-12.008 7.732-21.614 7.732h-29.52V41.997Zm29.169 105.431c3.163 0 5.564-.937 7.204-2.811 1.758-1.875 2.636-4.92 2.636-9.138V71.518c0-4.217-.878-7.263-2.636-9.138-1.64-1.874-4.041-2.811-7.204-2.811h-9.84v87.859h9.84Zm42.216-105.43h51.134v17.571h-31.805v34.265h24.952v17.572h-24.952V165h-19.329V41.997Zm60.403 0h19.329v105.43h31.805V165h-51.134V41.997Zm60.404 0h19.329V165h-19.329V41.997Zm50.849 60.095-21.262-60.096h20.384l13.003 39.713h.351l13.355-39.713h18.275l-21.262 60.096L571.414 165h-20.383l-14.058-42.875h-.351L522.213 165h-18.275l22.316-62.907Z" fill="#000"/>
  <path d="M158.146 179.233c2.585 3.501 24.126 9.853 47.444 9.66 23.319.193 44.86-6.159 47.444-9.66" stroke="#000" stroke-width="14.057" stroke-linecap="round"/>
</svg>
